<svg width="18" height="19" viewBox="0 0 18 19" fill="none" xmlns="http://www.w3.org/2000/svg">
<g id="Frame" clip-path="url(#clip0_4_32)">
<path id="Vector" d="M9.75 4.65654C10.1642 4.65654 10.4999 4.6193 10.4999 5.0126V10.3537C10.4999 10.747 10.1642 11.778 9.75 11.778C9.33583 11.778 9.0001 10.8873 9.0001 10.494V5.0126C9.0001 4.6193 9.33583 4.65654 9.75 4.65654ZM9.75 11.778C10.1642 11.778 10.4999 12.4529 10.4999 12.8462V18.5247C10.4999 18.918 10.1642 18.8995 9.75 18.8995C9.33583 18.8995 9.00011 18.918 9.00011 18.5247V13.5584C9.00011 13.1651 9.33583 11.778 9.75 11.778ZM17.249 11.778C17.249 12.1713 17.2882 12.4902 16.8741 12.4902L11.2498 12.4902C10.8356 12.4902 9.75 12.1713 9.75 11.778C9.75 11.3847 10.8356 11.0659 11.2498 11.0659L16.8741 11.0659C17.2882 11.0659 17.249 11.3847 17.249 11.778ZM9.69728 11.7573C9.69728 12.1506 8.66437 12.4902 8.25021 12.4902H2.62596C2.2118 12.4902 2.25099 12.1713 2.25099 11.778C2.25099 11.3847 2.2118 11.0659 2.62596 11.0659L7.50031 11.0659C7.91447 11.0659 9.69728 11.364 9.69728 11.7573ZM15.0526 16.8137C14.7597 17.0918 14.5422 17.3972 14.2494 17.1191L10.1249 13.2023C9.83211 12.9242 9.45716 12.0562 9.75 11.778C10.0429 11.4999 10.957 12.2121 11.2498 12.4902L15.3743 16.0509C15.6671 16.329 15.3455 16.5355 15.0526 16.8137ZM9.62727 11.6671C9.33441 11.9452 8.16811 11.344 7.87525 11.0659L6.00049 9.2855C5.70764 9.00738 3.83289 7.42717 4.12574 7.14906C4.4186 6.87095 4.95774 6.1588 5.25059 6.43691L9.0761 10.0795L9.0001 9.99765C9.29295 10.2758 9.92012 11.3889 9.62727 11.6671ZM4.4474 16.8137C4.15455 16.5355 3.83291 16.329 4.12576 16.0509L8.25021 12.1341C8.54307 11.856 9.45714 11.4999 9.75 11.778C10.0428 12.0562 9.92012 12.6197 9.62727 12.8978L5.25061 17.1191C4.95775 17.3972 4.74026 17.0918 4.4474 16.8137ZM9.75 11.778C9.45709 11.4999 10.2071 10.2758 10.4999 9.99764L14.2494 6.4369C14.5422 6.15879 14.7597 6.46426 15.0526 6.74237C15.3455 7.02048 15.6671 7.22701 15.3743 7.50512L13.4995 9.28549L12.3747 10.3537L11.2498 11.3523C10.957 11.6304 10.0429 12.0561 9.75 11.778Z" fill="#050CC7"/>
</g>
<defs>
<clipPath id="clip0_4_32">
<rect width="18" height="17.9923" fill="white" transform="translate(0 0.907196)"/>
</clipPath>
</defs>
</svg>
