<svg width="55" height="55" viewBox="0 0 55 55" fill="none" xmlns="http://www.w3.org/2000/svg">
<g id="Frame">
<path id="Vector" d="M46.0242 24.0618L48.7791 25.7148C49.3215 26.0404 49.4975 26.7442 49.1721 27.2869C49.0751 27.448 48.9402 27.583 48.7791 27.6799L27.4998 40.4472L6.22076 27.6799C5.67812 27.3542 5.50214 26.6505 5.82774 26.1078C5.9245 25.9465 6.05948 25.8115 6.22076 25.7148L8.97555 24.0618L27.4998 35.1764L46.0242 24.0618ZM46.0242 34.8326L48.7791 36.4856C49.3215 36.8113 49.4975 37.515 49.1721 38.0577C49.0751 38.2188 48.9402 38.3538 48.7791 38.4507L28.6788 50.5106C27.9531 50.946 27.0465 50.946 26.3207 50.5106L6.22076 38.4507C5.67812 38.1251 5.50214 37.4213 5.82774 36.8786C5.9245 36.7173 6.05948 36.5823 6.22076 36.4856L8.97555 34.8326L27.4998 45.9472L46.0242 34.8326ZM28.6788 2.99845L48.7791 15.0585C49.3215 15.3841 49.4975 16.0879 49.1721 16.6305C49.0751 16.7918 48.9402 16.9268 48.7791 17.0236L27.4998 29.791L6.22076 17.0236C5.67812 16.698 5.50214 15.9942 5.82774 15.4515C5.9245 15.2902 6.05948 15.1552 6.22076 15.0585L26.3207 2.99845C27.0465 2.56302 27.9531 2.56302 28.6788 2.99845Z" fill="#6B0AB7"/>
</g>
</svg>
